first trial
nRows=13
nColumns=38

# SIMM Motion File Header:
name Sujet_05_velo_80.mvnx
datacolumns 38
datarows 13
otherdata 1
range 4.1170 4.3170
endheader
time pelvis_tilt  pelvis_list  pelvis_rotation  pelvis_tx  pelvis_ty  pelvis_tz  hip_flexion_r  hip_adduction_r  hip_rotation_r  knee_angle_r  ankle_angle_r  subtalar_angle_r  mtp_angle_r  hip_flexion_l  hip_adduction_l  hip_rotation_l  knee_angle_l  ankle_angle_l  subtalar_angle_l  mtp_angle_l  lumbar_extension  lumbar_bending  lumbar_rotation  arm_flex_r  arm_add_r  arm_rot_r  elbow_flex_r  pro_sup_r  wrist_flex_r  wrist_dev_r  arm_flex_l  arm_add_l  arm_rot_l  elbow_flex_l  pro_sup_l  wrist_flex_l  wrist_dev_l
4.1170	-4.7717	-0.2057	-87.0270	0.0000	1.2500	-0.0000	57.5562	-1.7941	-10.7622	88.1442	-19.1653	2.3537	-0.0000	54.7374	-1.0217	-16.7805	52.2679	-7.2472	12.3601	0.0000	-22.3613	1.5327	-1.6002	87.3888	-7.9718	19.1794	4.2868	67.1868	-59.4465	-36.3775	94.5817	-7.2006	28.1353	-1.0877	53.5654	-42.7438	-21.4954	
4.1340	-4.8081	-0.7089	-87.5724	0.0000	1.2500	-0.0000	60.6174	-1.4966	-10.7357	91.7355	-18.8103	2.6560	0.0000	50.7893	-1.5758	-17.4981	47.2122	-8.8488	12.4992	0.0000	-22.3355	1.8116	-1.3728	87.6511	-7.6471	19.1656	4.1187	67.7441	-59.4562	-36.3899	94.4368	-7.4736	28.0830	-0.9886	53.2997	-42.8802	-21.6621	
4.1500	-4.8614	-1.1753	-88.0545	0.0000	1.2500	-0.0000	63.6397	-1.2142	-10.5693	94.8172	-18.1325	2.8363	-0.0000	47.0948	-2.1033	-18.0586	42.7697	-10.3671	12.6654	-0.0000	-22.2951	2.0675	-1.1587	87.7987	-7.3804	19.2209	3.9949	68.1651	-59.4646	-36.4296	94.2640	-7.7043	28.0125	-0.9274	53.0608	-43.0110	-21.8211	
4.1670	-4.9275	-1.6016	-88.4798	0.0000	1.2500	-0.0000	66.6483	-0.9411	-10.1505	97.4121	-16.9851	2.7920	0.0000	43.6810	-2.6423	-18.3234	38.9897	-11.8014	12.9594	0.0000	-22.2378	2.2954	-0.9564	87.7828	-7.1997	19.4461	3.9322	68.3538	-59.4715	-36.5039	94.0697	-7.8728	27.8938	-0.9342	52.8690	-43.1343	-21.9673	
4.1840	-5.0129	-1.9915	-88.8420	0.0000	1.2500	-0.0000	69.6208	-0.6560	-9.5772	99.4982	-15.5217	2.6390	-0.0000	40.5177	-3.2032	-18.4055	35.8303	-13.1564	13.2859	-0.0000	-22.1640	2.5006	-0.7675	87.6542	-7.0799	19.7422	3.9137	68.4065	-59.4771	-36.6055	93.8487	-7.9984	27.7581	-0.9787	52.7044	-43.2521	-22.1064	
4.2000	-5.1154	-2.3245	-89.0919	0.0000	1.2500	-0.0000	72.4198	-0.3864	-9.0605	100.9181	-14.2344	2.5346	0.0000	37.8792	-3.7190	-18.5396	33.6394	-14.2133	13.4990	-0.0000	-22.0921	2.6793	-0.6062	87.5188	-7.0060	19.9413	3.9239	68.4788	-59.4866	-36.6987	93.6426	-8.0866	27.6306	-1.0011	52.5786	-43.3339	-22.2080	
4.2170	-5.2482	-2.6096	-89.1872	0.0000	1.2500	-0.0000	75.1003	-0.1590	-8.6165	101.6255	-13.2655	2.5288	-0.0000	35.8444	-4.1669	-18.8214	32.4922	-14.9041	13.4906	0.0000	-22.0239	2.8433	-0.4764	87.3946	-6.9837	19.9616	3.9736	68.6524	-59.5057	-36.7727	93.4502	-8.1303	27.5170	-0.9730	52.4950	-43.3670	-22.2535	
4.2330	-5.4004	-2.8372	-89.1702	0.0000	1.2500	-0.0000	77.6046	0.0435	-8.2001	101.6678	-12.4707	2.5421	-0.0000	34.3370	-4.5740	-19.1119	32.2909	-15.2942	13.3731	-0.0000	-21.9560	2.9803	-0.3741	87.2647	-7.0067	19.8846	4.0517	68.8458	-59.5285	-36.8385	93.2737	-8.1379	27.4123	-0.9231	52.4501	-43.3641	-22.2612	
4.2500	-5.5343	-2.9589	-89.1200	0.0000	1.2500	-0.0000	79.6257	0.2398	-7.9277	101.0291	-11.9063	2.5368	0.0000	33.3991	-4.9324	-19.2809	33.1234	-15.3627	13.3210	0.0000	-21.8983	3.0501	-0.3014	87.1817	-7.0407	19.7873	4.1084	68.9694	-59.5424	-36.8941	93.1591	-8.1390	27.3256	-0.8775	52.4465	-43.3325	-22.2559	
4.2670	-5.6444	-2.9502	-89.0622	0.0000	1.2500	-0.0000	81.1264	0.4446	-7.8345	99.6396	-11.7270	2.5037	-0.0000	33.1024	-5.2536	-19.2695	35.1679	-14.9601	13.3803	-0.0000	-21.8541	3.0329	-0.2535	87.1848	-7.0812	19.6840	4.1155	68.9798	-59.5345	-36.9383	93.1290	-8.1395	27.2488	-0.8362	52.5009	-43.2649	-22.2450	
4.2830	-5.7358	-2.8354	-88.9702	0.0000	1.2500	-0.0000	82.1444	0.6372	-7.8768	97.5730	-11.7761	2.4486	0.0000	33.3780	-5.5303	-19.1199	38.2576	-14.2337	13.4815	0.0000	-21.8204	2.9486	-0.2352	87.2349	-7.1324	19.5605	4.1019	68.9203	-59.5176	-36.9723	93.1608	-8.1340	27.1895	-0.7995	52.5965	-43.1688	-22.2208	
4.3000	-5.7859	-2.6381	-88.8444	0.0000	1.2500	-0.0000	82.4864	0.7803	-8.0580	95.0278	-11.6428	2.3726	-0.0000	34.0569	-5.7246	-18.8590	41.9730	-13.6072	13.6196	-0.0000	-21.7982	2.8168	-0.2632	87.2667	-7.1730	19.4517	4.1035	68.8326	-59.5172	-36.9982	93.2328	-8.1347	27.1801	-0.7935	52.6853	-43.0740	-22.1858	
4.3170	-5.7874	-2.3505	-88.6878	0.0000	1.2500	-0.0000	82.0480	0.8808	-8.3999	92.0267	-11.0633	2.2190	-0.0000	35.1409	-5.8196	-18.4660	46.3271	-13.2555	13.8362	-0.0000	-21.7911	2.6343	-0.3498	87.2674	-7.1850	19.3623	4.1319	68.7428	-59.5501	-37.0188	93.3642	-8.1573	27.2599	-0.8382	52.7177	-42.9917	-22.1436	
